# xmcd
#
# Track frame offsets: 
#        150
#        4717
#        8924
#        13623
#        17689
#        28048
#        32125
#        37630
#        46756
#        55929
#        64977
#        74453
#        83812
#        95227
#        109600
#        118822
#        130302
#        142732
#        148284
#        160124
#        165137
#        177735
#        189285
#        198686
#        210544
#        222303
#
# Disc length: 3084 seconds
#
# Revision: 0
# Processed by: cddbd v1.5.2PL0 Copyright (c) Steve Scherf et al.
# Submitted via: ExactAudioCopy v0.95b3
#
DISCID=680c0a1a
DTITLE=The Monkees - The Monkees Complete 03 of 28
DYEAR=1900
DGENRE=
TTITLE0=Monkees Theme (Boyce and Hart demo)
TTITLE1=Monkees Theme (demo version)
TTITLE2=Monkees Theme (demo version backing track)
TTITLE3=Monkees Theme (short version)
TTITLE4=Monkees Theme (echo mix)
TTITLE5=Monkees Theme (short version backing track)
TTITLE6=Monkees Theme (4.1 composite)
TTITLE7=Of You
TTITLE8=Of You (alt. mix 1)
TTITLE9=Of You (alt. mix 2)
TTITLE10=Of You (alt. mix 3)
TTITLE11=Papa Gene's Blues (alt. mix)
TTITLE12=Saturday's Child (alt. mix)
TTITLE13=So Goes Love
TTITLE14=Sweet Young Thing (alt. mix)
TTITLE15=Take A Giant Step (alt. mix)
TTITLE16=Take A Giant Step (4.1 composite)
TTITLE17=Tema Dei Monkees
TTITLE18=Tema Dei Monkees (original single mix)
TTITLE19=Tema Dei Monkees (short stereo mix)
TTITLE20=Tema Dei Monkees (long edit)
TTITLE21=This Just Doesn't Seem To Be My Day (alt. mix)
TTITLE22=This Just Doesn't Seem To Be My Day (from acetate)
TTITLE23=Valleri (1st version)
TTITLE24=Valleri (1st version alt. mix)
TTITLE25=You Just May Be The One (original version)
EXTD=
EXTT0=
EXTT1=
EXTT2=
EXTT3=
EXTT4=
EXTT5=
EXTT6=
EXTT7=
EXTT8=
EXTT9=
EXTT10=
EXTT11=
EXTT12=
EXTT13=
EXTT14=
EXTT15=
EXTT16=
EXTT17=
EXTT18=
EXTT19=
EXTT20=
EXTT21=
EXTT22=
EXTT23=
EXTT24=
EXTT25=
PLAYORDER=
